<svg xmlns="http://www.w3.org/2000/svg" width="84" height="84" viewBox="0 0 84 84">
    <g transform="translate(-168 -898)">
        <path data-name="사각형 343976" transform="translate(168 898)" style="fill:none" d="M0 0h84v84H0z"/>
        <g data-name="타원 1653" transform="translate(174 904)" style="stroke:#707070;stroke-width:3px;fill:#fff">
            <circle cx="36.5" cy="36.5" r="36.5" style="stroke:none"/>
            <circle cx="36.5" cy="36.5" r="35" style="fill:none"/>
        </g>
        <circle data-name="타원 1654" cx="22" cy="22" r="22" transform="translate(188 918)" style="fill:#fdcd80"/>
        <path data-name="패스 854323" d="M-14986.727-3370.266v10.559l3.6 3.829-.778 18.789s-.394 3.433 3.011 3.433 3.012-3.433 3.012-3.433l-1.187-18.789 3.793-3.829v-10.559" transform="translate(15182 4294)" style="stroke-linejoin:round;stroke-linecap:round;stroke:#707070;stroke-width:3px;fill:none"/>
        <path data-name="패스 854324" d="M-14981.2-3370.266v8.231" transform="translate(15182.191 4294)" style="stroke-linecap:round;stroke:#707070;stroke-width:3px;fill:none"/>
        <path data-name="패스 854325" d="m-14965.333-3355.5-.645 19.23s-.024 2.471 2.88 2.445 2.772-2.445 2.772-2.445l-.877-19.23s3.437-1.16 3.437-6.917-2.951-7.988-5.473-7.988-5.675 2.031-5.605 7.988 3.511 6.917 3.511 6.917z" transform="translate(15182 4294)" style="stroke-linejoin:round;stroke-linecap:round;stroke:#707070;stroke-width:3px;fill:none"/>
        <path data-name="패스 854326" d="M6.766 40.735A23.558 23.558 0 0 1 0 24a24.029 24.029 0 0 1 3.9-13.057" transform="translate(187 916)" style="stroke-linecap:round;stroke:#707070;stroke-width:3px;fill:none"/>
        <path data-name="패스 854327" d="M1.606 32.747A24.234 24.234 0 0 1 0 24a23.985 23.985 0 0 1 .69-5.671" transform="scale(-1) rotate(-88 -592.777 -337.624)" style="stroke-linecap:round;stroke:#707070;stroke-width:3px;fill:none"/>
        <path data-name="패스 854328" d="M6.766 40.735A23.558 23.558 0 0 1 0 24a24.029 24.029 0 0 1 3.9-13.057" transform="rotate(-172 148.535 475.765)" style="stroke-linecap:round;stroke:#707070;stroke-width:3px;fill:none"/>
        <path data-name="패스 854329" d="M.669 29.7a20.387 20.387 0 0 1-.663-3.652A28.586 28.586 0 0 1 .06 22.3" transform="rotate(-85.99 607.499 381.968)" style="stroke-linecap:round;stroke:#707070;stroke-width:3px;fill:none"/>
    </g>
</svg>
