<svg xmlns="http://www.w3.org/2000/svg" width="84" height="84" viewBox="0 0 84 84">
    <path data-name="사각형 343977" style="fill:none" d="M0 0h84v84H0z"/>
    <g data-name="그룹 463156">
        <g data-name="패스 854330" style="fill:#fff">
            <path d="M42 41.5H4a2.503 2.503 0 0 1-2.499-2.424l3.986-34.88C5.687 2.893 6.554 1.5 8 1.5h30c1.524 0 2.369 1.38 2.509 2.663v.007l3.99 34.906A2.503 2.503 0 0 1 42 41.5z" style="stroke:none" transform="translate(13 29)"/>
            <path d="M8 3c-.585 0-.934.842-1.026 1.399L3.006 39.114c.057.498.481.886.994.886h38c.513 0 .937-.388.994-.886L39.018 4.325C38.964 3.833 38.689 3 38 3H8m0-3h30c2.21 0 3.76 1.797 4 4l4 35a4 4 0 0 1-4 4H4a4 4 0 0 1-4-4L4 4c.31-2.113 1.79-4 4-4z" style="fill:#707070;stroke:none" transform="translate(13 29)"/>
        </g>
        <g data-name="패스 854332" style="fill:#fdcd80">
            <path d="M27.4 26.552H2.61a1.11 1.11 0 0 1-1.108-1.042L4.097 2.807C4.17 2.343 4.494 1.5 5.219 1.5h19.57c.677 0 1.05.639 1.119 1.272v.008l2.599 22.73a1.11 1.11 0 0 1-1.108 1.042z" style="stroke:none" transform="translate(41 44)"/>
            <path d="M5.586 3a.744.744 0 0 0-.004.016L3.064 25.052h23.88L24.424 3H5.586m-.367-3h19.57c1.442 0 2.453 1.172 2.61 2.61l2.61 22.832a2.61 2.61 0 0 1-2.61 2.61H2.61A2.61 2.61 0 0 1 0 25.442L2.61 2.61C2.811 1.231 3.777 0 5.218 0z" style="fill:#707070;stroke:none" transform="translate(41 44)"/>
        </g>
        <path data-name="패스 854331" d="M22.451 23.139V11.112a11 11 0 0 0-22 0v12.027" transform="translate(24.549 11.861)" style="stroke:#707070;stroke-width:3px;fill:none"/>
        <path data-name="패스 854333" d="M12.374 10.6V6.086a5.961 5.961 0 0 0-11.923 0V10.6" transform="rotate(180 31.208 30.552)" style="stroke-linecap:round;stroke:#707070;stroke-width:3px;fill:none"/>
        <g data-name="타원 1655" transform="translate(21 33)" style="stroke:#707070;stroke-width:3px;fill:#fff">
            <circle cx="4" cy="4" r="4" style="stroke:none"/>
            <circle cx="4" cy="4" r="2.5" style="fill:none"/>
        </g>
        <g data-name="타원 1656" transform="translate(43 33)" style="stroke:#707070;stroke-width:3px;fill:#fff">
            <circle cx="4" cy="4" r="4" style="stroke:none"/>
            <circle cx="4" cy="4" r="2.5" style="fill:none"/>
        </g>
    </g>
</svg>
