    <svg xmlns="http://www.w3.org/2000/svg" width="84" height="84" viewBox="0 0 84 84">
    <g data-name="icon_About Korea">
        <path data-name="사각형 343963" style="fill:none" d="M0 0h84v84H0z"/>
        <path data-name="패스 854302" d="M-14987.18-3384.253c-.6-1.2-1.121-5.179-2.928-5.661s-1.926 4.216-4.215 4.336-4.818-2.048-6.986-1.084-4.337.963-5.9 2.409-2.53 4.1-3.854 3.854-3.492 1.686-2.649 4.1 5.06 10.118 3.854 10.238a4.95 4.95 0 0 1-3.854-.843c-1.687-1.084-6.5 1.566-6.5 3.132s.36 4.7 3.131 4.216 3.493.482 3.373 2.65 1.445 8.793 0 9.4-3.613-.241-4.216 1.807-1.686 2.048-2.288 8.672-2.41 6.625-1.566 8.07 6.5 3.975 8.07 2.289 1.445-3.854 3.854-3.252 2.89 3.493 5.54 1.927 8.914-6.745 10.721-5.781 3.131 3.975 4.456 2.891.6-6.625 1.928-6.143 4.215 1.927 5.179 0 3.528-5.022 5.336-7.672 1.686-7.143 0-7.986.24-5.9 0-9.154-2.769-15.177-5.66-17.826-4.223-3.385-4.826-4.589z" transform="translate(15039 3396)" style="stroke:#707070;stroke-width:3px;fill:#fff"/>
        <path data-name="패스 854303" d="M-15015.442-3323.573c-2.533.57-3.711.885-4.47 2.151s-.5 3.5 1.416 3.8a13.683 13.683 0 0 0 5.254 0 3.1 3.1 0 0 0 2.6-3.1c-.058-1.842-2.269-3.421-4.8-2.851z" transform="translate(15038.527 3398.4)" style="stroke:#707070;stroke-width:3px;fill:#fff"/>
        <path data-name="패스 855637" d="M-15017.6-3323.6c-1.409.422-2.065.656-2.486 1.593s-.278 2.595.788 2.812a5.76 5.76 0 0 0 2.924 0 2.2 2.2 0 0 0 1.444-2.3 2.133 2.133 0 0 0-2.67-2.105z" transform="translate(15087.308 3356.637)" style="fill:#f5f5f5;stroke:#707070;stroke-width:3px"/>
        <path data-name="패스 855638" d="M-15018.988-3323.648c-.687.206-1.006.32-1.213.777s-.135 1.265.385 1.371a2.808 2.808 0 0 0 1.426 0 1.072 1.072 0 0 0 .705-1.12 1.041 1.041 0 0 0-1.303-1.028z" transform="translate(15094.686 3360.177)" style="fill:#707070"/>
        <g data-name="패스 854304" style="fill:#fdcd80">
            <path d="M14.357 35.59c-.523 0-1.678-.252-3.542-1.94-1.474-1.336-3.002-3.227-4.418-5.467C3.377 23.406 1.5 18.108 1.5 14.357c0-1.917.341-3.713 1.014-5.337A11.833 11.833 0 0 1 5.246 5C7.588 2.742 10.824 1.5 14.357 1.5c3.5 0 6.734 1.274 9.105 3.588 1.179 1.15 2.1 2.51 2.74 4.043.672 1.611 1.013 3.37 1.013 5.226 0 1.828-.479 4.11-1.384 6.6-.869 2.388-2.084 4.855-3.515 7.134-1.423 2.266-2.953 4.178-4.424 5.53-1.866 1.713-3.015 1.97-3.535 1.97z" style="stroke:none" transform="translate(40.643 9.955)"/>
            <path d="M14.357 3c-3.143 0-6.01 1.093-8.07 3.079C4.136 8.149 3 11.012 3 14.357c0 3.43 1.831 8.542 4.665 13.024 1.345 2.128 2.783 3.91 4.158 5.157 1.355 1.228 2.25 1.552 2.534 1.552.009 0 .826-.018 2.52-1.574 1.374-1.263 2.816-3.068 4.168-5.223 2.837-4.517 4.67-9.595 4.67-12.936 0-1.657-.302-3.221-.897-4.648a10.656 10.656 0 0 0-2.403-3.547C20.325 4.122 17.463 3 14.357 3m0-3c7.93 0 14.358 5.918 14.358 14.357 0 8.44-8.891 22.733-14.358 22.733C8.891 37.09 0 23.052 0 14.357 0 5.663 6.428 0 14.357 0z" style="fill:#707070;stroke:none" transform="translate(40.643 9.955)"/>
        </g>
        <g data-name="타원 1651" transform="translate(46 16)" style="stroke:#707070;stroke-width:3px;fill:#fff">
            <circle cx="9" cy="9" r="9" style="stroke:none"/>
            <circle cx="9" cy="9" r="7.5" style="fill:none"/>
        </g>
        <path data-name="패스 854305" d="M-14990.473-3370.456s4.27 3.33 7.224 0 7.17 0 7.17 0" transform="translate(15038.507 3395.456)" style="stroke:#707070;stroke-width:3px;fill:none"/>
    </g>
</svg>
