<svg xmlns="http://www.w3.org/2000/svg" width="84" height="84" viewBox="0 0 84 84">
    <path data-name="사각형 343965" style="fill:none" d="M0 0h84v84H0z"/>
    <path data-name="패스 854311" d="m-14981.672-3340 3.313 7.563-3.141 2.688-5.437-5.984" transform="translate(15014 3396)" style="stroke-linejoin:round;stroke:#707070;stroke-width:3px;fill:#fdcd80"/>
    <path data-name="패스 854312" d="m-14983.189-3340.7-3.748 8.263 3.141 2.688 5.438-5.984" transform="rotate(90 -9173.555 5860.805)" style="stroke-linejoin:round;stroke:#707070;stroke-width:3px;fill:#fdcd80"/>
    <path data-name="패스 854315" d="M-14959.1-3337.758v3.743" transform="rotate(45 -11554.33 16481.992)" style="stroke-linecap:round;stroke:#707070;stroke-width:3px;fill:none"/>
    <path data-name="패스 854316" d="M-14959.1-3337.758v6.818" transform="rotate(45 -11557.332 16489.234)" style="stroke-linecap:round;stroke:#707070;stroke-width:3px;fill:none"/>
    <path data-name="패스 854317" d="M-14959.1-3337.758v12.139" transform="rotate(45 -11560.331 16496.477)" style="stroke-linecap:round;stroke:#707070;stroke-width:3px;fill:none"/>
    <g data-name="그룹 463154">
        <path data-name="패스 854319" d="M0 3.743V0" transform="rotate(-135 17.6 13.14)" style="stroke-linecap:round;stroke:#707070;stroke-width:3px;fill:none"/>
        <path data-name="패스 854318" d="M0 6.818V0" transform="rotate(-135 13.964 13.435)" style="stroke-linecap:round;stroke:#707070;stroke-width:3px;fill:none"/>
        <path data-name="패스 854320" d="M0 12.139V0" transform="rotate(-135 9.862 14.852)" style="stroke-linecap:round;stroke:#707070;stroke-width:3px;fill:none"/>
    </g>
    <g data-name="사각형 343966" style="stroke:#707070;stroke-width:3px;fill:#fdcd80">
        <path d="M4 0a4 4 0 0 1 4 4v7H0V4a4 4 0 0 1 4-4z" style="stroke:none" transform="rotate(45 6.825 60.118)"/>
        <path d="M4 1.5A2.5 2.5 0 0 1 6.5 4v5.5h-5V4A2.5 2.5 0 0 1 4 1.5z" style="fill:none" transform="rotate(45 6.825 60.118)"/>
    </g>
    <g data-name="사각형 343968" style="stroke:#707070;stroke-width:3px;fill:#fdcd80">
        <path d="M4 0a4 4 0 0 1 4 4v7H0V4a4 4 0 0 1 4-4z" style="stroke:none" transform="rotate(45 -5.392 95.818)"/>
        <path d="M4 1.5A2.5 2.5 0 0 1 6.5 4v5.5h-5V4A2.5 2.5 0 0 1 4 1.5z" style="fill:none" transform="rotate(45 -5.392 95.818)"/>
    </g>
    <g data-name="사각형 343967" style="stroke:#707070;stroke-width:3px;fill:#fdcd80">
        <path d="M4 0a4 4 0 0 1 4 4v7H0V4a4 4 0 0 1 4-4z" style="stroke:none" transform="rotate(45 5.113 45.74)"/>
        <path d="M4 1.5A2.5 2.5 0 0 1 6.5 4v5.5h-5V4A2.5 2.5 0 0 1 4 1.5z" style="fill:none" transform="rotate(45 5.113 45.74)"/>
    </g>
    <g data-name="사각형 343969" style="stroke:#707070;stroke-width:3px;fill:#fdcd80">
        <path d="M4 0a4 4 0 0 1 4 4v7H0V4a4 4 0 0 1 4-4z" style="stroke:none" transform="rotate(45 -16.46 105.588)"/>
        <path d="M4 1.5A2.5 2.5 0 0 1 6.5 4v5.5h-5V4A2.5 2.5 0 0 1 4 1.5z" style="fill:none" transform="rotate(45 -16.46 105.588)"/>
    </g>
    <path data-name="패스 854313" d="m-14965.605-3355.114 18.744 24.1 3.258-2.455-10.445-31.784z" transform="translate(15013.567 3395.557)" style="fill:#fff;stroke-linejoin:round;stroke:#707070;stroke-width:3px"/>
    <path data-name="패스 854321" d="m-14943.6-3355.114-18.744 24.1-3.258-2.455 10.445-31.784z" transform="rotate(90 -9145.943 5834.538)" style="fill:#fff;stroke-linejoin:round;stroke:#707070;stroke-width:3px"/>
    <path data-name="패스 854310" d="M-14986.834-3335.567s34.872-30.442 39.319-35.724 3.89-8.489 2.381-9.8-5.1-2.193-10.471 3.673-35.386 37.5-35.386 37.5z" transform="translate(15014 3396)" style="fill:#fff;stroke:#707070;stroke-width:3px"/>
</svg>
