<svg width="84" height="84" viewBox="0 0 84 84" fill="none" xmlns="http://www.w3.org/2000/svg">
<g clip-path="url(#clip0_78_1319)">
<ellipse cx="31.6122" cy="31.0431" rx="10.913" ry="10.3079" fill="#FDCD80"/>
<path d="M20.6992 50.5135C20.6992 46.7183 23.7851 43.6416 27.5917 43.6416H63.2026C67.0092 43.6416 70.095 46.7183 70.095 50.5135V51.6588C70.095 55.4541 67.0092 58.5308 63.2026 58.5308H27.5917C23.7851 58.5308 20.6992 55.4541 20.6992 51.6588V50.5135Z" fill="white"/>
<path d="M32.1866 40.2056C32.1866 34.5128 36.8154 29.8978 42.5253 29.8978H48.269C53.9788 29.8978 58.6076 34.5128 58.6076 40.2056V42.4963C58.6076 48.1892 53.9788 52.8042 48.269 52.8042H42.5253C36.8154 52.8042 32.1866 48.1892 32.1866 42.4963V40.2056Z" fill="white"/>
<path d="M45.5311 26.3072C55.0133 26.3072 60.397 32.3426 61.1782 39.6364H61.4168C67.5202 39.6364 72.4691 44.3825 72.4691 50.2375C72.4691 56.0925 67.5202 60.8386 61.4168 60.8386H58.7461L58.6807 60.996L52.966 71.3707C52.7366 71.7922 52.3573 72.1127 51.9027 72.2691C51.4481 72.4256 50.9512 72.4066 50.5099 72.216C50.0686 72.0254 49.7149 71.6769 49.5185 71.2392C49.3221 70.8016 49.2972 70.3064 49.4487 69.8514L49.5872 69.5367L54.3822 60.8386H47.2475L47.1782 60.996L41.4635 71.3707C41.2341 71.7922 40.8548 72.1127 40.4002 72.2691C39.9456 72.4256 39.4487 72.4066 39.0074 72.216C38.5661 72.0254 38.2124 71.6769 38.016 71.2392C37.8196 70.8016 37.7947 70.3064 37.9462 69.8514L38.0847 69.5367L42.8835 60.8386H35.6796L29.9225 71.3707C29.6931 71.7922 29.3138 72.1127 28.8592 72.2691C28.4046 72.4256 27.9077 72.4066 27.4664 72.216C27.0252 72.0254 26.6715 71.6769 26.475 71.2392C26.2786 70.8016 26.2537 70.3064 26.4052 69.8514L26.5437 69.5367L31.3002 60.8386H29.6455C23.5421 60.8386 18.5932 56.0925 18.5932 50.2375C18.5932 44.3825 23.5421 39.6364 29.6455 39.6364H29.884C30.6691 32.2927 36.0451 26.3072 45.5311 26.3072ZM45.5311 30.1441C39.1815 30.1441 33.6515 35.0168 33.6515 41.7505C33.6515 42.8171 32.6741 43.6535 31.5542 43.6535H29.4377C25.574 43.6497 22.4415 46.6424 22.4415 50.3258C22.4415 54.0091 25.574 57.0018 29.4377 57.0018H61.6246C65.4883 57.0018 68.6208 54.0091 68.6208 50.3258C68.6208 46.6424 65.4883 43.6497 61.6246 43.6497H59.5081C58.3882 43.6535 57.4108 42.8171 57.4108 41.7505C57.4108 34.9324 51.8769 30.1441 45.5311 30.1441ZM17.8351 36.6667C17.983 37.092 17.9762 37.5557 17.8158 37.9766C17.6554 38.3975 17.3516 38.7487 16.9577 38.9688L16.6421 39.1069L13.5597 40.1658C13.1048 40.3246 12.6067 40.3073 12.164 40.1174C11.7212 39.9276 11.3661 39.579 11.1687 39.1407C10.9714 38.7023 10.9462 38.206 11.0982 37.7501C11.2502 37.2941 11.5683 36.9116 11.9896 36.6782L12.3051 36.54L15.3914 35.4811C15.8737 35.3161 16.4019 35.3487 16.8601 35.5717C17.3183 35.7947 17.669 36.1899 17.8351 36.6705M37.5267 20.552C37.6061 20.5905 37.6848 20.6297 37.7629 20.6696C39.2379 21.4231 38.7001 23.4294 37.1751 24.0757V24.0757C36.7501 24.2559 36.2841 24.22 35.8697 24.0165C34.282 23.237 32.4889 22.9519 30.7263 23.2085C28.7189 23.5006 26.8752 24.4773 25.5087 25.9722C24.1423 27.4671 23.3376 29.3878 23.2316 31.4076C23.1595 32.783 23.4143 34.1464 23.9639 35.3906C24.3417 36.2459 23.9684 37.3397 23.1162 37.7244V37.7244C22.1075 38.1797 20.8689 37.9181 20.4245 36.9045C19.598 35.0199 19.2434 32.952 19.4059 30.8812C19.6209 28.1437 20.7279 25.5514 22.5582 23.4996C24.3885 21.4479 26.8416 20.0493 29.5434 19.5171C32.2453 18.9849 35.0475 19.3483 37.5229 20.552M14.4217 21.2043L14.7449 21.327L17.6773 22.7505C18.1096 22.96 18.4476 23.3233 18.6248 23.7688C18.8019 24.2143 18.8054 24.7097 18.6346 25.1577C18.4638 25.6056 18.131 25.9736 17.7017 26.1892C17.2724 26.4048 16.7777 26.4524 16.315 26.3226L15.9879 26.1998L13.0594 24.7763C12.6271 24.5668 12.2891 24.2036 12.112 23.7581C11.9348 23.3126 11.9313 22.8171 12.1021 22.3692C12.2729 21.9212 12.6057 21.5533 13.035 21.3377C13.4643 21.1221 13.959 21.0745 14.4217 21.2043ZM41.6405 12.0918C42.0457 12.2889 42.3686 12.6216 42.5529 13.0318C42.7371 13.442 42.7711 13.9037 42.6488 14.3364L42.5256 14.6586L41.0979 17.5823C40.8878 18.0133 40.5234 18.3503 40.0766 18.5269C39.6298 18.7036 39.1328 18.7071 38.6836 18.5367C38.2343 18.3664 37.8652 18.0346 37.649 17.6066C37.4327 17.1786 37.385 16.6854 37.5152 16.2241L37.6383 15.8979L39.066 12.9743C39.1769 12.7472 39.3316 12.5442 39.5212 12.3769C39.7109 12.2096 39.9319 12.0813 40.1714 11.9993C40.411 11.9173 40.6644 11.8833 40.9172 11.8991C41.1699 11.915 41.4132 11.9805 41.6405 12.0918ZM27.0594 11.969L27.2018 12.2837L28.2639 15.3608C28.4201 15.8137 28.4006 16.3085 28.2094 16.7479C28.0182 17.1873 27.669 17.5395 27.2306 17.7352C26.7921 17.9309 26.2961 17.9561 25.84 17.8056C25.3839 17.6552 25.0008 17.3402 24.7658 16.9224L24.6235 16.6077L23.5652 13.5345C23.4115 13.0826 23.4322 12.5898 23.6234 12.1523C23.8145 11.7149 24.1622 11.3641 24.5988 11.1685C25.0353 10.973 25.5293 10.9466 25.9843 11.0946C26.4392 11.2426 26.8226 11.5544 27.0594 11.969Z" fill="#707070"/>
</g>
<defs>
<clipPath id="clip0_78_1319">
<rect width="62" height="62" fill="white" transform="translate(11 11)"/>
</clipPath>
</defs>
</svg>
